<?xml version="1.0" encoding="utf-8"?>
<!-- Generator: Adobe Illustrator 25.4.1, SVG Export Plug-In . SVG Version: 6.00 Build 0)  -->
<svg version="1.1" id="Blue_Tick_Rounded_Solid" xmlns="http://www.w3.org/2000/svg" xmlns:xlink="http://www.w3.org/1999/xlink" x="0px" y="0px" viewBox="0 0 1000 1000" style="enable-background:new 0 0 1000 1000;" xml:space="preserve"><style type="text/css">.st0{fill:#0095FF;}.st1{fill:#FFFFFF;}</style><g id="Blue_Tick"><path id="Background" class="st0" d="M968.2,542.9l-62.7-92.7l34.6-104.6c8.1-24.6-3.9-51.3-27.7-61.4l-102.8-43.8l-27.8-106.9c-6.5-25-31.1-40.9-56.6-36.6l-109.8,18.6l-81.8-75.1c-19-17.4-48.2-17.4-67.3,0l-81.8,75.1L274.7,96.9c-25.5-4.3-50,11.6-56.5,36.6l-27.9,106.9l-102.8,44c-23.8,10.1-35.8,36.8-27.7,61.4l34.6,104.6l-62.7,92.7c-14.4,21.4-10.1,50.3,9.9,66.5l85.6,69.2l-2.8,111.6c-0.6,25.9,18.6,47.9,44.3,50.8l109.7,12.1l57.8,95.3c13.4,22.2,41.5,30.4,64.7,18.9l99.3-49.2l99.2,49.2c23.2,11.5,51.4,3.2,64.7-18.9l57.5-95.3l109.7-12.1c25.7-2.9,44.9-24.9,44.3-50.8l-2.8-111.6l85.4-69.2C978.4,593.4,982.7,564.4,968.2,542.9z"/><path id="Tick" class="st1" d="M435.2,668.2c-13.2,0-26-5.1-35.6-14.2l-102.1-96.4c-21.1-19.5-22.9-52.2-4-73.8c19.3-21.2,52.1-22.7,73.2-3.5c0.3,0.2,0.5,0.5,0.8,0.7l66.7,62.9l197-197c20.3-20.3,53.1-20.3,73.3,0c20.3,20.3,20.3,53.1,0,73.3L471.9,653C462.2,662.8,448.9,668.2,435.2,668.2z"/></g></svg>