<svg id="ix" xmlns="http://www.w3.org/2000/svg" viewBox="0 0 375 543.99"><g id="letters"><path id="x-letter" d="M588.58,581.87,670,498.4a61.74,61.74,0,0,0-1.38-87.46l-1.92-1.85a62.77,62.77,0,0,0-88.06,1.38L500,491.09l-78.66-80.62a62.77,62.77,0,0,0-88.06-1.38l-1.92,1.85A61.74,61.74,0,0,0,330,498.4l81.44,83.47L330,665.34a61.72,61.72,0,0,0,1.38,87.45l1.92,1.85a62.77,62.77,0,0,0,88.06-1.38L500,672.65l78.66,80.61a62.77,62.77,0,0,0,88.06,1.38l1.92-1.85A61.72,61.72,0,0,0,670,665.34Z" transform="translate(-312.5 -228)"/><circle id="i-dot" cx="187.5" cy="63.17" r="63.17"/></g></svg>